<?xml version="1.0" encoding="UTF-8"?>
<svg width="64px" height="64px" viewBox="0 0 64 64" version="1.1" xmlns="http://www.w3.org/2000/svg" xmlns:xlink="http://www.w3.org/1999/xlink">
    <defs>
        <linearGradient x1="50%" y1="0%" x2="50%" y2="100%" id="linearGradient-1">
            <stop stop-color="#032F30" offset="0%"></stop>
            <stop stop-color="#056F76" offset="100%"></stop>
        </linearGradient>
        <rect id="path-2" x="0" y="0" width="64" height="64"></rect>
    </defs>
    <g stroke="none" stroke-width="1" fill="none" fill-rule="evenodd">
        <g id="favicon">
            <mask id="mask-3" fill="white">
                <use xlink:href="#path-2"></use>
            </mask>
            <use id="Rectangle" fill="url(#linearGradient-1)" xlink:href="#path-2"></use>
            <path d="M38.4893593,55.9400289 L110.325,55.9400289 C110.447263,55.9400289 110.546377,56.0391427 110.546377,56.1614059 C110.546377,56.283669 110.447263,56.3827828 110.325,56.3827828 L38.4893593,56.3827828 C38.3910585,56.7647083 38.04436,57.0469136 37.6317489,57.0469136 L-26.7688133,57.0469136 C-27.2578657,57.0469136 -27.654321,56.6504583 -27.654321,56.1614059 C-27.654321,55.6723534 -27.2578657,55.2758981 -26.7688133,55.2758981 L37.6317489,55.2758981 C38.04436,55.2758981 38.3910585,55.5581034 38.4893593,55.9400289 Z M108.104325,49.077344 C108.348852,49.077344 108.547079,49.2755717 108.547079,49.5200979 C108.547079,49.7646241 108.348852,49.9628517 108.104325,49.9628517 L34.2378478,49.9628517 C34.067043,50.3537823 33.676959,50.6269825 33.2230656,50.6269825 L-24.5639474,50.6269825 C-25.175263,50.6269825 -25.6708321,50.1314134 -25.6708321,49.5200979 C-25.6708321,48.9087824 -25.175263,48.4132132 -24.5639474,48.4132132 L33.2230656,48.4132132 C33.676959,48.4132132 34.067043,48.6864134 34.2378478,49.077344 L108.104325,49.077344 Z M32.1246006,42.2146591 L105.903616,42.2146591 C106.270405,42.2146591 106.567746,42.5120006 106.567746,42.8787899 C106.567746,43.2455792 106.270405,43.5429207 105.903616,43.5429207 L32.1246006,43.5429207 C31.8949379,43.939939 31.4656811,44.2070515 30.9740368,44.2070515 L-20.1197592,44.2070515 C-20.8533379,44.2070515 -21.4480208,43.6123685 -21.4480208,42.8787899 C-21.4480208,42.1452113 -20.8533379,41.5505283 -20.1197592,41.5505283 L30.9740368,41.5505283 C31.4656811,41.5505283 31.8949379,41.8176408 32.1246006,42.2146591 Z M101.414133,35.3519742 C101.912618,35.3519742 102.316721,35.7484295 102.316721,36.2374819 C102.316721,36.7265343 101.912618,37.1229897 101.414133,37.1229897 L24.0564549,37.1229897 C23.7710235,37.5244532 23.2967992,37.7871205 22.7600423,37.7871205 L-13.4335237,37.7871205 C-14.3058738,37.7871205 -15.0130533,37.0933237 -15.0130533,36.2374819 C-15.0130533,35.3816402 -14.3058738,34.6878434 -13.4335237,34.6878434 L22.7600423,34.6878434 C23.2967992,34.6878434 23.7710235,34.9505106 24.0564549,35.3519742 L101.414133,35.3519742 Z M47.8538392,11.4432655 C46.8757344,11.4432655 46.0828238,10.6503549 46.0828238,9.67225003 C46.0828238,8.6941452 46.8757344,7.90123457 47.8538392,7.90123457 L66.5325179,7.90123457 C67.5106228,7.90123457 68.3035334,8.6941452 68.3035334,9.67225003 C68.3035334,10.6503549 67.5106228,11.4432655 66.5325179,11.4432655 L47.8538392,11.4432655 Z M37.6203514,17.8631965 C36.7645097,17.8631965 36.0707129,17.1693997 36.0707129,16.313558 C36.0707129,15.4577163 36.7645097,14.7639195 37.6203514,14.7639195 L79.2913034,14.7639195 C80.1471452,14.7639195 80.840942,15.4577163 80.840942,16.313558 C80.840942,17.1693997 80.1471452,17.8631965 79.2913034,17.8631965 L37.6203514,17.8631965 Z M28.7535791,24.2831276 C28.0200005,24.2831276 27.4253175,23.6884446 27.4253175,22.954866 C27.4253175,22.2212874 28.0200005,21.6266044 28.7535791,21.6266044 L90.3849171,21.6266044 C91.1184957,21.6266044 91.7131787,22.2212874 91.7131787,22.954866 C91.7131787,23.6884446 91.1184957,24.2831276 90.3849171,24.2831276 L28.7535791,24.2831276 Z M24.3103703,30.7030586 C23.6990548,30.7030586 23.2034856,30.2074895 23.2034856,29.596174 C23.2034856,28.9848584 23.6990548,28.4892893 24.3103703,28.4892893 L97.0594105,28.4892893 C97.670726,28.4892893 98.1662952,28.9848584 98.1662952,29.596174 C98.1662952,30.2074895 97.670726,30.7030586 97.0594105,30.7030586 L24.3103703,30.7030586 Z M-3.06285522,31.3671894 C-4.04096005,31.3671894 -4.83387068,30.5742788 -4.83387068,29.596174 C-4.83387068,28.6180691 -4.04096005,27.8251585 -3.06285522,27.8251585 L11.465006,27.8251585 C12.4431108,27.8251585 13.2360214,28.6180691 13.2360214,29.596174 C13.2360214,30.5742788 12.4431108,31.3671894 11.465006,31.3671894 L-3.06285522,31.3671894 Z" id="logo-sign-2" fill="#39FFBD" fill-rule="nonzero" mask="url(#mask-3)"></path>
        </g>
    </g>
</svg>
