<svg viewBox="0 0 64 64" xmlns="http://www.w3.org/2000/svg">
<g transform="translate(-132.000000, -30.000000)">
  <path d="M162.769894,78.4 L195.219363,78.4 C195.274592,78.4 195.319363,78.4447715 195.319363,78.5 C195.319363,78.5552285 195.274592,78.6 195.219363,78.6 L162.769894,78.6 C162.725489,78.7725227 162.568879,78.9 162.382495,78.9 L133.291586,78.9 C133.070672,78.9 132.891586,78.7209139 132.891586,78.5 C132.891586,78.2790861 133.070672,78.1 133.291586,78.1 L162.382495,78.1 C162.568879,78.1 162.725489,78.2274773 162.769894,78.4 Z M194.216244,75.3 C194.326701,75.3 194.416244,75.3895431 194.416244,75.5 C194.416244,75.6104569 194.326701,75.7 194.216244,75.7 L160.849408,75.7 C160.772253,75.8765905 160.596044,76 160.391013,76 L134.287564,76 C134.011422,76 133.787564,75.7761424 133.787564,75.5 C133.787564,75.2238576 134.011422,75 134.287564,75 L160.391013,75 C160.596044,75 160.772253,75.1234095 160.849408,75.3 L194.216244,75.3 Z M159.894816,72.2 L193.222143,72.2 C193.387829,72.2 193.522143,72.3343146 193.522143,72.5 C193.522143,72.6656854 193.387829,72.8 193.222143,72.8 L159.894816,72.8 C159.791073,72.9793404 159.59717,73.1 159.375085,73.1 L136.295085,73.1 C135.963714,73.1 135.695085,72.8313708 135.695085,72.5 C135.695085,72.1686292 135.963714,71.9 136.295085,71.9 L159.375085,71.9 C159.59717,71.9 159.791073,72.0206596 159.894816,72.2 Z M191.194162,69.1 C191.419337,69.1 191.601877,69.2790861 191.601877,69.5 C191.601877,69.7209139 191.419337,69.9 191.194162,69.9 L156.250287,69.9 C156.121353,70.0813484 155.907137,70.2 155.664674,70.2 L139.31538,70.2 C138.921323,70.2 138.601877,69.8865993 138.601877,69.5 C138.601877,69.1134007 138.921323,68.8 139.31538,68.8 L155.664674,68.8 C155.907137,68.8 156.121353,68.9186516 156.250287,69.1 L191.194162,69.1 Z M167,58.3 C166.558172,58.3 166.2,57.9418278 166.2,57.5 C166.2,57.0581722 166.558172,56.7 167,56.7 L175.4375,56.7 C175.879328,56.7 176.2375,57.0581722 176.2375,57.5 C176.2375,57.9418278 175.879328,58.3 175.4375,58.3 L167,58.3 Z M162.377347,61.2 C161.990747,61.2 161.677347,60.8865993 161.677347,60.5 C161.677347,60.1134007 161.990747,59.8 162.377347,59.8 L181.200876,59.8 C181.587476,59.8 181.900876,60.1134007 181.900876,60.5 C181.900876,60.8865993 181.587476,61.2 181.200876,61.2 L162.377347,61.2 Z M158.372064,64.1 C158.040693,64.1 157.772064,63.8313708 157.772064,63.5 C157.772064,63.1686292 158.040693,62.9 158.372064,62.9 L186.212064,62.9 C186.543435,62.9 186.812064,63.1686292 186.812064,63.5 C186.812064,63.8313708 186.543435,64.1 186.212064,64.1 L158.372064,64.1 Z M156.364985,67 C156.088843,67 155.864985,66.7761424 155.864985,66.5 C155.864985,66.2238576 156.088843,66 156.364985,66 L189.227054,66 C189.503197,66 189.727054,66.2238576 189.727054,66.5 C189.727054,66.7761424 189.503197,67 189.227054,67 L156.364985,67 Z M144,67.3 C143.558172,67.3 143.2,66.9418278 143.2,66.5 C143.2,66.0581722 143.558172,65.7 144,65.7 L150.5625,65.7 C151.004328,65.7 151.3625,66.0581722 151.3625,66.5 C151.3625,66.9418278 151.004328,67.3 150.5625,67.3 L144,67.3 Z" id="logo-sign">
  </path>
</g>
</svg>
